<svg width="34" height="34" viewBox="0 0 34 34" fill="none" xmlns="http://www.w3.org/2000/svg">
<path d="M17 14.1667C17.6511 14.1667 18.2959 14.0384 18.8975 13.7892C19.499 13.5401 20.0456 13.1748 20.5061 12.7144C20.9665 12.254 21.3317 11.7074 21.5809 11.1058C21.8301 10.5042 21.9583 9.85947 21.9583 9.20833C21.9583 8.5572 21.8301 7.91243 21.5809 7.31086C21.3317 6.70929 20.9665 6.16269 20.5061 5.70226C20.0456 5.24184 19.499 4.87661 18.8975 4.62743C18.2959 4.37825 17.6511 4.25 17 4.25C15.685 4.25 14.4238 4.77239 13.4939 5.70226C12.5641 6.63213 12.0417 7.8933 12.0417 9.20833C12.0417 10.5234 12.5641 11.7845 13.4939 12.7144C14.4238 13.6443 15.685 14.1667 17 14.1667ZM4.25 28.9V29.75H29.75V28.9C29.75 25.7267 29.75 24.14 29.1323 22.9273C28.5891 21.8611 27.7222 20.9943 26.656 20.451C25.4433 19.8333 23.8567 19.8333 20.6833 19.8333H13.3167C10.1433 19.8333 8.55667 19.8333 7.344 20.451C6.2778 20.9943 5.41094 21.8611 4.86767 22.9273C4.25 24.14 4.25 25.7267 4.25 28.9Z" stroke="#FF6B6B" stroke-width="2" stroke-linecap="round" stroke-linejoin="round"/>
</svg>
